<svg xmlns="http://www.w3.org/2000/svg" xmlns:xlink="http://www.w3.org/1999/xlink" viewBox="0 0 84.68 102.91"><defs><style>.cls-1{isolation:isolate;}.cls-2{fill:url(#Degradado_sin_nombre_82);}.cls-3{fill:#fefeff;}.cls-3,.cls-4{mix-blend-mode:overlay;}.cls-4{fill:none;stroke:#fefeff;stroke-miterlimit:10;stroke-width:2.28px;}</style><linearGradient id="Degradado_sin_nombre_82" y1="51.45" x2="84.68" y2="51.45" gradientUnits="userSpaceOnUse"><stop offset="0" stop-color="#4db1ff"/><stop offset="1" stop-color="#8e54fe"/></linearGradient></defs><title>Fichier 8</title><g class="cls-1"><g id="Calque_2" data-name="Calque 2"><g id="OBJECTS"><path class="cls-2" d="M73.75,22.78H64.81c0-.1,0-.2,0-.3a22.48,22.48,0,1,0-45,0c0,.1,0,.2,0,.3H10.93L0,102.91H84.68ZM28.17,36.84a2.58,2.58,0,1,1,2.57-2.57A2.57,2.57,0,0,1,28.17,36.84Zm28.34,0a2.58,2.58,0,1,1,2.58-2.57A2.57,2.57,0,0,1,56.51,36.84ZM25,22.78H22.33v-.3a20,20,0,1,1,40,0c0,.1,0,.2,0,.3H25Z"/><polygon class="cls-3" points="19.57 67.35 57.61 53.27 43.55 92.04 40.1 72.05 19.57 67.35"/><circle class="cls-4" cx="42.34" cy="68.91" r="26.79" transform="translate(-32.46 99.66) rotate(-80.78)"/></g></g></g></svg>